<svg width="28" height="28" viewBox="0 0 28 28" fill="none" xmlns="http://www.w3.org/2000/svg">
<path fill-rule="evenodd" clip-rule="evenodd" d="M18.3643 4.79288C19.1454 4.01183 20.4117 4.01183 21.1927 4.79288L23.2071 6.80724C23.9881 7.58828 23.9881 8.85462 23.2071 9.63566L15.5951 17.2477C15.4243 17.4185 15.1974 17.5217 14.9564 17.5382L11.2755 17.7905C10.9871 17.8103 10.7044 17.7044 10.5 17.5C10.2956 17.2956 10.1897 17.0128 10.2094 16.7245L10.4618 13.0436C10.4783 12.8026 10.5815 12.5757 10.7523 12.4049L18.3643 4.79288ZM12.4314 13.5542L12.2832 15.7168L14.4458 15.5685L21.7929 8.22145L19.7785 6.20709L20.4856 5.49999L12.4314 13.5542ZM7.20709 9.79288C6.65481 9.79288 6.20709 10.2406 6.20709 10.7929V20.7929C6.20709 21.3452 6.65481 21.7929 7.20709 21.7929H17.2071C17.7594 21.7929 18.2071 21.3452 18.2071 20.7929V17.7929C18.2071 17.2406 18.6548 16.7929 19.2071 16.7929C19.7594 16.7929 20.2071 17.2406 20.2071 17.7929V20.7929C20.2071 22.4497 18.8639 23.7929 17.2071 23.7929H7.20709C5.55024 23.7929 4.20709 22.4497 4.20709 20.7929V10.7929C4.20709 9.13602 5.55024 7.79288 7.20709 7.79288H10.2071C10.7594 7.79288 11.2071 8.24059 11.2071 8.79288C11.2071 9.34516 10.7594 9.79288 10.2071 9.79288H7.20709Z" fill="#181A1B"/>
</svg>
