<svg width="28" height="28" viewBox="0 0 28 28" fill="none" xmlns="http://www.w3.org/2000/svg">
<path fill-rule="evenodd" clip-rule="evenodd" d="M18.3644 4.79282C19.1454 4.01177 20.4118 4.01177 21.1928 4.79282L23.2072 6.80718C23.9882 7.58822 23.9882 8.85455 23.2072 9.6356L15.5952 17.2476C15.4243 17.4184 15.1974 17.5216 14.9564 17.5382L11.2755 17.7905C10.9872 17.8102 10.7044 17.7043 10.5 17.4999C10.2957 17.2956 10.1897 17.0128 10.2095 16.7244L10.4618 13.0435C10.4783 12.8025 10.5815 12.5756 10.7524 12.4048L18.3644 4.79282ZM12.4315 13.5541L12.2833 15.7167L14.4459 15.5685L21.7929 8.22139L19.7786 6.20703L20.4857 5.49992L12.4315 13.5541ZM7.20715 9.79282C6.65487 9.79282 6.20715 10.2405 6.20715 10.7928V20.7928C6.20715 21.3451 6.65487 21.7928 7.20715 21.7928H17.2072C17.7594 21.7928 18.2072 21.3451 18.2072 20.7928V17.7928C18.2072 17.2405 18.6549 16.7928 19.2072 16.7928C19.7594 16.7928 20.2072 17.2405 20.2072 17.7928V20.7928C20.2072 22.4497 18.864 23.7928 17.2072 23.7928H7.20715C5.5503 23.7928 4.20715 22.4497 4.20715 20.7928V10.7928C4.20715 9.13596 5.5503 7.79282 7.20715 7.79282H10.2072C10.7594 7.79282 11.2072 8.24053 11.2072 8.79282C11.2072 9.3451 10.7594 9.79282 10.2072 9.79282H7.20715Z" fill="#F0425F"/>
</svg>
