<svg width="28" height="28" viewBox="0 0 28 28" fill="none" xmlns="http://www.w3.org/2000/svg">
<path fill-rule="evenodd" clip-rule="evenodd" d="M10.8488 5.57038C11.051 4.66041 11.8595 4 12.8021 4H15.1978C16.1404 4 16.9489 4.66041 17.1511 5.57038C17.4055 6.71501 18.6062 7.40825 19.7247 7.05621C20.6138 6.77635 21.59 7.14632 22.0613 7.96264L23.2591 10.0373C23.7305 10.8537 23.5628 11.884 22.8758 12.5142C22.0117 13.3068 22.0117 14.6932 22.8758 15.4858C23.5628 16.1159 23.7305 17.1463 23.2591 17.9626L22.0613 20.0373C21.59 20.8537 20.6138 21.2236 19.7247 20.9438C18.6062 20.5917 17.4055 21.285 17.1511 22.4296C16.9489 23.3396 16.1404 24 15.1978 24H12.8021C11.8595 24 11.051 23.3396 10.8488 22.4296C10.5945 21.285 9.39375 20.5917 8.27528 20.9438C7.38612 21.2236 6.40994 20.8537 5.93864 20.0373L4.74081 17.9626C4.26951 17.1463 4.43719 16.1159 5.12414 15.4858C5.98825 14.6932 5.98825 13.3068 5.12414 12.5142C4.43719 11.884 4.26951 10.8537 4.74081 10.0373L5.93864 7.96264C6.40994 7.14632 7.38612 6.77635 8.27528 7.05621C9.39375 7.40825 10.5945 6.71501 10.8488 5.57038ZM12.8018 6.00267C12.8016 6.00302 12.8014 6.00331 12.8012 6.00424C12.2925 8.29352 9.91177 9.66802 7.67483 8.96395C7.67452 8.96385 7.67428 8.96379 7.67408 8.96374C7.67369 8.96366 7.67345 8.96367 7.67317 8.96368C7.67242 8.9637 7.67122 8.9639 7.66991 8.9644C7.6698 8.96444 7.6697 8.96448 7.66961 8.96452L6.47395 11.0355C6.47396 11.0356 6.47398 11.0357 6.47399 11.0358C6.47421 11.0372 6.47465 11.0383 6.475 11.039C6.47519 11.0393 6.47537 11.0396 6.47606 11.0403C8.20427 12.6255 8.20427 15.3745 6.47606 16.9597C6.47569 16.9601 6.47546 16.9603 6.47531 16.9605C6.47517 16.9607 6.47509 16.9608 6.475 16.961C6.47465 16.9617 6.47421 16.9628 6.47399 16.9642C6.47398 16.9643 6.47396 16.9644 6.47395 16.9645L7.66961 19.0355C7.6697 19.0355 7.6698 19.0355 7.66991 19.0356C7.67122 19.0361 7.67242 19.0363 7.67317 19.0363C7.67359 19.0363 7.67393 19.0363 7.67483 19.036C9.91177 18.332 12.2925 19.7065 12.8012 21.9958C12.8014 21.9967 12.8016 21.997 12.8018 21.9973C12.8022 21.998 12.803 21.9989 12.8041 21.9998C12.8041 21.9999 12.8042 21.9999 12.8043 22H15.1956C15.1957 21.9999 15.1958 21.9999 15.1959 21.9998C15.197 21.9989 15.1977 21.998 15.1981 21.9973C15.1984 21.997 15.1985 21.9967 15.1987 21.9958C15.7075 19.7065 18.0882 18.332 20.3251 19.036C20.326 19.0363 20.3264 19.0363 20.3268 19.0363C20.3275 19.0363 20.3287 19.0361 20.33 19.0356C20.3302 19.0355 20.3303 19.0355 20.3304 19.0355L21.526 16.9645C21.526 16.9644 21.526 16.9643 21.526 16.9642C21.5257 16.9628 21.5253 16.9617 21.525 16.961C21.5248 16.9606 21.5246 16.9603 21.5239 16.9597C19.7957 15.3745 19.7957 12.6255 21.5239 11.0403C21.5246 11.0396 21.5248 11.0393 21.525 11.039C21.5253 11.0383 21.5257 11.0372 21.526 11.0358C21.526 11.0357 21.526 11.0356 21.526 11.0355L20.3304 8.96452C20.3303 8.96448 20.3302 8.96444 20.33 8.9644C20.3287 8.9639 20.3275 8.96371 20.3268 8.96368C20.3264 8.96366 20.326 8.96367 20.3251 8.96395C18.0882 9.66802 15.7075 8.29352 15.1987 6.00424C15.1985 6.00331 15.1984 6.00302 15.1981 6.00267C15.1979 6.00225 15.1975 6.0017 15.1969 6.00113C15.1966 6.00082 15.1963 6.00051 15.1959 6.0002C15.1958 6.00013 15.1957 6.00006 15.1956 6H12.8043C12.8042 6.00006 12.8041 6.00013 12.8041 6.0002C12.803 6.00108 12.8022 6.00203 12.8018 6.00267ZM21.5271 11.0373C21.5271 11.0373 21.5271 11.0373 21.5271 11.0373L21.5271 11.0373ZM14 12C12.8954 12 12 12.8954 12 14C12 15.1046 12.8954 16 14 16C15.1045 16 16 15.1046 16 14C16 12.8954 15.1045 12 14 12ZM9.99997 14C9.99997 11.7909 11.7908 10 14 10C16.2091 10 18 11.7909 18 14C18 16.2091 16.2091 18 14 18C11.7908 18 9.99997 16.2091 9.99997 14Z" fill="#181A1B"/>
</svg>
