<svg width="28" height="28" viewBox="0 0 28 28" fill="none" xmlns="http://www.w3.org/2000/svg">
<path fill-rule="evenodd" clip-rule="evenodd" d="M14.0683 6C13.7921 6 13.5683 6.22386 13.5683 6.5C13.5683 6.77614 13.7921 7 14.0683 7C14.3444 7 14.5683 6.77614 14.5683 6.5C14.5683 6.22386 14.3444 6 14.0683 6ZM16.3984 7.40759C16.5081 7.12624 16.5683 6.82015 16.5683 6.5C16.5683 5.11929 15.449 4 14.0683 4C12.6876 4 11.5683 5.11929 11.5683 6.5C11.5683 6.82015 11.6284 7.12624 11.7381 7.40759C9.11145 8.36029 7.23493 10.8777 7.23493 13.8333V15.9861C7.23493 16.7758 7.00118 17.5479 6.56313 18.2049L6.25445 18.6679C5.58989 19.6648 6.30448 21 7.50252 21H11.0683C11.0683 22.6569 12.4114 24 14.0683 24C15.7251 24 17.0683 22.6569 17.0683 21H20.634C21.8321 21 22.5466 19.6648 21.8821 18.6679L21.5734 18.2049C21.1353 17.5479 20.9016 16.7758 20.9016 15.9861V13.8333C20.9016 10.8777 19.0251 8.36029 16.3984 7.40759ZM14.0683 9C16.7376 9 18.9016 11.164 18.9016 13.8333V15.9861C18.9016 17.0469 19.1828 18.0865 19.7135 19H8.42305C8.95372 18.0865 9.23493 17.0469 9.23493 15.9861V13.8333C9.23493 11.164 11.3989 9 14.0683 9ZM13.0683 21C13.0683 21.5523 13.516 22 14.0683 22C14.6205 22 15.0683 21.5523 15.0683 21H13.0683Z" fill="#181A1B"/>
</svg>
