<svg width="160" height="58" viewBox="0 0 160 58" fill="none" xmlns="http://www.w3.org/2000/svg">
<path d="M20.3018 3.85742V6.89258H22.0107V8.13672H20.3018V11.0762H18.7705V3.85742H20.3018ZM16.2686 11.3086C18.7979 11.3086 20.3975 12.2109 20.4111 13.7422C20.3975 15.3008 18.7979 16.2031 16.2686 16.2031C13.7119 16.2031 12.085 15.3008 12.085 13.7422C12.085 12.2109 13.7119 11.3086 16.2686 11.3086ZM16.2686 12.5254C14.5732 12.5254 13.5752 12.9492 13.5889 13.7422C13.5752 14.5488 14.5732 14.9863 16.2686 14.9863C17.9365 14.9863 18.9346 14.5488 18.9346 13.7422C18.9346 12.9492 17.9365 12.5254 16.2686 12.5254ZM16.5557 4.73242V5.96289H12.5225V9.06641C14.8877 9.05957 16.207 8.99121 17.6631 8.68359L17.8135 9.90039C16.2139 10.2422 14.751 10.2969 12.0166 10.2969H11.0186V4.73242H16.5557ZM32.9346 3.87109V12.8945H31.4033V3.87109H32.9346ZM33.2764 14.7402V15.9707H24.7588V12.0332H26.29V14.7402H33.2764ZM27.2471 5.75781C27.2471 7.48047 28.2588 9.10742 30.2139 9.76367L29.4346 10.9668C28.0264 10.4746 27.0215 9.49023 26.4814 8.23242C25.9209 9.5791 24.9023 10.6592 23.4463 11.1855L22.6533 9.98242C24.6631 9.27148 25.6748 7.53516 25.6748 5.75781V4.55469H27.2471V5.75781ZM38.7451 4.71875C40.7002 4.70508 42.1357 5.94922 42.1494 7.69922C42.1357 9.46289 40.7002 10.6934 38.7451 10.6934C36.8037 10.6934 35.3545 9.46289 35.3545 7.69922C35.3545 5.94922 36.8037 4.70508 38.7451 4.71875ZM38.7451 6.03125C37.665 6.03125 36.8584 6.67383 36.8584 7.69922C36.8584 8.73828 37.665 9.36719 38.7451 9.36719C39.8389 9.36719 40.6592 8.73828 40.6592 7.69922C40.6592 6.67383 39.8389 6.03125 38.7451 6.03125ZM45.0342 3.85742V16.2305H43.5166V3.85742H45.0342ZM34.7939 12.4023C37.0225 12.4023 40.1123 12.375 42.7783 11.9922L42.9014 13.0996C40.126 13.6328 37.1592 13.6465 34.9854 13.6465L34.7939 12.4023ZM60.8252 3.85742V16.2168H59.3623V3.85742H60.8252ZM58.4189 4.08984V15.6426H57.0107V11.9922H55.4795C55.0488 12.9492 54.1807 13.5508 53.1006 13.5508C51.583 13.5508 50.4619 12.3477 50.4756 10.625C50.4619 8.88867 51.583 7.69922 53.1006 7.68555C54.6318 7.69922 55.7393 8.88867 55.7393 10.625V10.7754H57.0107V9.16211H55.5205V7.91797H57.0107V4.08984H58.4189ZM56.1084 5.82617V7.04297H50.1338V5.82617H52.376V4.17188H53.8936V5.82617H56.1084ZM53.1006 8.98438C52.3213 8.98438 51.8018 9.59961 51.8018 10.625C51.8018 11.623 52.3213 12.2656 53.1006 12.2656C53.8799 12.2656 54.4131 11.623 54.4268 10.625C54.4131 9.59961 53.8799 8.98438 53.1006 8.98438ZM67.5791 4.71875V5.93555H64.1885V7.13867H67.4561V8.30078H64.1885V9.59961C65.6992 9.58594 66.7451 9.52441 67.9482 9.29883L68.1123 10.5293C66.6631 10.8027 65.46 10.8438 63.5459 10.8438H62.7256V4.71875H67.5791ZM72.8291 3.87109V11.3906H71.3799V8.17773H70.0947V11.2949H68.6729V4.10352H70.0947V6.96094H71.3799V3.87109H72.8291ZM72.8291 11.9375V16.2168H71.3115V13.168H64.3662V11.9375H72.8291ZM79.9795 4.04883C82.7959 4.04883 84.4229 4.80078 84.4365 6.16797C84.4229 7.54883 82.7959 8.28711 79.9795 8.30078C77.1631 8.28711 75.5225 7.54883 75.5225 6.16797C75.5225 4.80078 77.1631 4.04883 79.9795 4.04883ZM79.9795 5.16992C78.0928 5.16992 77.1084 5.52539 77.1221 6.16797C77.1084 6.85156 78.0928 7.16602 79.9795 7.16602C81.8936 7.16602 82.8643 6.85156 82.8643 6.16797C82.8643 5.52539 81.8936 5.16992 79.9795 5.16992ZM85.626 8.95703V10.1738H74.3604V8.95703H85.626ZM84.2178 11.0078V14.0293H77.1904V14.9453H84.5596V16.1074H75.7002V12.9492H82.7275V12.1289H75.6865V11.0078H84.2178ZM94.2256 6.38672C94.2256 7.71289 95.2236 9.01172 97.165 9.53125L96.4814 10.6934C95.0459 10.3174 94.0342 9.49707 93.4873 8.4375C92.9336 9.59961 91.8945 10.502 90.4385 10.9258L89.7139 9.72266C91.6689 9.20312 92.708 7.83594 92.708 6.38672V6.3457H90.124V5.14258H92.708V3.80273H94.2393V5.14258H96.8096V6.3457H94.2256V6.38672ZM99.5303 3.85742V6.72852H101.253V7.98633H99.5303V10.9395H98.0127V3.85742H99.5303ZM99.708 11.5137V12.7305H96.4404C96.7275 13.7559 98.1152 14.7129 100.228 15.0137L99.6807 16.1758C97.7461 15.9023 96.2832 15.0752 95.5654 13.9473C94.8545 15.0684 93.4053 15.875 91.4912 16.1484L90.9307 15C93.0498 14.7061 94.4238 13.7832 94.7178 12.7305H91.4365V11.5137H99.708ZM105.204 4.75977C107.063 4.75977 108.403 6.45508 108.417 9.12109C108.403 11.8145 107.063 13.4961 105.204 13.4961C103.331 13.4961 101.978 11.8145 101.991 9.12109C101.978 6.45508 103.331 4.75977 105.204 4.75977ZM105.204 6.12695C104.165 6.12695 103.454 7.23438 103.454 9.12109C103.454 11.0215 104.165 12.1289 105.204 12.1289C106.257 12.1289 106.954 11.0215 106.954 9.12109C106.954 7.23438 106.257 6.12695 105.204 6.12695ZM111.562 3.85742V8.60156H113.462V9.88672H111.562V16.2168H110.044V3.85742H111.562ZM124.235 4.26758V5.4707H120.694C120.961 6.46875 122.438 7.35059 124.714 7.54883L124.167 8.73828C121.925 8.51953 120.264 7.65137 119.601 6.40039C118.931 7.64453 117.283 8.51953 115.048 8.73828L114.515 7.54883C116.764 7.35059 118.233 6.46191 118.521 5.4707H115.007V4.26758H124.235ZM116.839 11.3086V12.5254H122.308V11.3086H123.825V16.0664H115.335V11.3086H116.839ZM116.839 14.8633H122.308V13.6875H116.839V14.8633ZM125.247 9.3125V10.543H120.353V11.9785H118.849V10.543H113.981V9.3125H125.247ZM136.39 3.85742V16.2168H134.886V3.85742H136.39ZM128.296 5.06055V11.8145C130.032 11.7871 131.878 11.6299 133.778 11.2539L133.97 12.5254C131.796 12.9766 129.772 13.1133 127.858 13.1133H126.792V5.06055H128.296ZM147.86 3.85742V8.54688H149.761V9.79102H147.86V16.2305H146.343V3.85742H147.86ZM144.47 5.0332V6.26367H140.204V11.9375C142.125 11.9375 143.643 11.8418 145.345 11.541L145.522 12.8262C143.608 13.1543 141.94 13.209 139.712 13.209H138.687V5.0332H144.47Z" fill="white"/>
<path d="M26.6306 50.2398V56.908H0V51.6414L15.6301 33.8452H0V27.1769H26.6306V32.4436L11.6376 50.2398H26.6306Z" fill="white"/>
<path d="M53.6434 47.4366H36.909C37.5886 49.7726 39.5848 51.1317 42.5579 51.1317C44.809 51.1317 46.2956 50.4946 47.8671 49.1355L52.1144 53.5527C49.9058 56.0161 46.6778 57.2903 42.3031 57.2903C34.1058 57.2903 28.7967 52.236 28.7967 45.3554C28.7967 38.4748 34.1908 33.5054 41.4536 33.5054C48.2493 33.5054 53.7708 37.8377 53.7708 45.4403C53.7708 46.035 53.6859 46.7995 53.6434 47.4366ZM36.7816 43.1893H46.2106C45.7859 40.7683 44.002 39.2393 41.4961 39.2393C38.9902 39.2393 37.2488 40.7683 36.7816 43.1893Z" fill="white"/>
<path d="M80.8303 43.7414V56.9081H72.7605V45.0581C72.7605 41.7452 71.3164 40.3436 68.9804 40.3436C66.3895 40.3436 64.3933 41.9576 64.3933 45.7801V56.9081H56.3234V33.8877H64.011V36.3936C65.8374 34.4823 68.4282 33.5054 71.3164 33.5054C76.7105 33.5054 80.8303 36.606 80.8303 43.7414Z" fill="white"/>
<path d="M108.268 47.4366H91.5336C92.2132 49.7726 94.2094 51.1317 97.1825 51.1317C99.4336 51.1317 100.92 50.4946 102.492 49.1355L106.739 53.5527C104.53 56.0161 101.302 57.2903 96.9277 57.2903C88.7304 57.2903 83.4213 52.236 83.4213 45.3554C83.4213 38.4748 88.8153 33.5054 96.0782 33.5054C102.874 33.5054 108.395 37.8377 108.395 45.4403C108.395 46.035 108.31 46.7995 108.268 47.4366ZM91.4062 43.1893H100.835C100.41 40.7683 98.6266 39.2393 96.1207 39.2393C93.6148 39.2393 91.8734 40.7683 91.4062 43.1893Z" fill="white"/>
<path d="M124.025 31.2119C124.875 31.2119 125.767 31.5092 126.446 31.8915L128.443 26.2001C127.126 25.3931 125.045 25.0109 123.091 25.0109C117.03 25.0109 113.607 28.5149 113.501 33.8877H109.733V40.3436H113.488V56.9081H121.558V40.3436H126.824V33.8877H121.354C121.46 32.0826 122.416 31.2119 124.021 31.2119H124.025Z" fill="white"/>
<path d="M130.609 27.882C130.609 25.6904 132.376 24 135.068 24C137.761 24 139.528 25.5757 139.528 27.7674C139.528 30.0736 137.761 31.7641 135.068 31.7641C132.376 31.7641 130.609 30.0736 130.609 27.882ZM131.033 33.8877H139.103V56.9081H131.033V33.8877Z" fill="white"/>
<path d="M160 55.9737C158.598 56.8656 156.517 57.2903 154.394 57.2903C148.49 57.2903 145.05 54.4022 145.05 48.4984V40.3436H141.694V33.8877H145.05V28.7485H153.119V33.8877H158.386V40.3436H153.119V48.4135C153.119 50.1124 154.096 51.0468 155.54 51.0468C156.432 51.0468 157.324 50.792 158.004 50.3247L160 55.9737Z" fill="white"/>
</svg>
