<svg width="19" height="18" viewBox="0 0 19 18" fill="none" xmlns="http://www.w3.org/2000/svg">
<path d="M10.5 12C10.5 12.5523 10.0523 13 9.5 13C8.94772 13 8.5 12.5523 8.5 12C8.5 11.4477 8.94772 11 9.5 11C10.0523 11 10.5 11.4477 10.5 12Z" fill="#7A8085"/>
<path fill-rule="evenodd" clip-rule="evenodd" d="M9.5 5C10.0523 5 10.5 5.44772 10.5 6V9C10.5 9.55228 10.0523 10 9.5 10C8.94772 10 8.5 9.55228 8.5 9V6C8.5 5.44772 8.94772 5 9.5 5Z" fill="#7A8085"/>
<rect x="1" y="0.5" width="17" height="17" rx="8.5" stroke="#7A8085"/>
</svg>
