<svg width="28" height="28" viewBox="0 0 28 28" fill="none" xmlns="http://www.w3.org/2000/svg">
<circle cx="24" cy="4" r="2" fill="#0080FF"/>
<path fill-rule="evenodd" clip-rule="evenodd" d="M6 8C6 6.34315 7.34315 5 9 5H20C20.5523 5 21 5.44772 21 6V23C21 23.5523 20.5523 24 20 24H9C7.34315 24 6 22.6569 6 21L6 8ZM8 18.1707V8C8 7.44772 8.44772 7 9 7H19V18H9C8.64936 18 8.31278 18.0602 8 18.1707ZM19 20H9C8.44772 20 8 20.4477 8 21C8 21.5523 8.44771 22 9 22H19V20Z" fill="#181A1B"/>
<path d="M12.5 9.5C12.5 8.94772 12.9477 8.5 13.5 8.5C14.0523 8.5 14.5 8.94772 14.5 9.5C14.5 10.0523 14.0523 10.5 13.5 10.5C12.9477 10.5 12.5 10.0523 12.5 9.5Z" fill="#181A1B"/>
<path fill-rule="evenodd" clip-rule="evenodd" d="M13.5 11.5C14.0523 11.5 14.5 11.9477 14.5 12.5V15.5C14.5 16.0523 14.0523 16.5 13.5 16.5C12.9477 16.5 12.5 16.0523 12.5 15.5V12.5C12.5 11.9477 12.9477 11.5 13.5 11.5Z" fill="#181A1B"/>
</svg>
