<svg width="18" height="21" viewBox="0 0 18 21" fill="none" xmlns="http://www.w3.org/2000/svg">
<path d="M5.17736 4.96945C5.17736 4.96945 0.552292 5.34701 0.457903 11.1047C0.457903 11.1047 0.363514 15.4466 3.76152 19.1278C3.76152 19.1278 5.46053 21.0156 7.25392 19.8829C7.25392 19.8829 9.1417 18.8447 11.2183 19.7885C11.2183 19.7885 12.9173 20.8268 14.1443 19.7885C14.1443 19.7885 16.5984 17.712 17.5423 14.8803C17.5423 14.8803 14.6163 14.0308 14.7107 10.6328C14.7107 10.6328 14.5219 8.36746 16.976 6.95163C16.976 6.95163 15.4101 4.87507 13.2193 4.96945C13.2193 4.96945 12.0678 4.87507 10.6519 5.53579C10.6519 5.53579 9.42487 6.19651 7.72586 5.4414C7.72586 5.4414 6.49881 4.87507 5.17736 4.96945Z" fill="white"/>
<path d="M8.76414 5.06384C8.76414 5.06384 12.8229 4.87507 12.7285 0.25C12.7285 0.25 8.38659 0.910724 8.76414 5.06384Z" fill="white"/>
</svg>
