<svg width="120" height="130" viewBox="0 0 120 130" fill="none" xmlns="http://www.w3.org/2000/svg">
<path d="M106.624 6.88207C107.464 6.88207 108.347 7.1764 109.022 7.55708L111 1.92156C109.697 1.11704 107.637 0.740295 105.702 0.740295C99.6976 0.740295 96.3108 4.20951 96.2048 9.53108H96.193H91.4766V15.924H96.193V23.419H104.183V15.924H110.399V9.53108H103.983C104.085 7.74152 105.035 6.88207 106.62 6.88207H106.624Z" fill="white"/>
<path d="M87.7555 70.0816V84.292H31V73.0681L64.3108 35.1422H31V20.9317H87.7555V32.1556L55.8026 70.0816H87.7555Z" fill="white"/>
<path d="M19.9729 123.972V128.973H0V125.023L11.7225 111.676H0V106.675H19.9729V110.625L8.7282 123.972H19.9729Z" fill="white"/>
<path d="M40.2327 121.869H27.6819C28.1916 123.621 29.6888 124.641 31.9186 124.641C33.6069 124.641 34.7218 124.163 35.9004 123.144L39.0859 126.456C37.4295 128.304 35.0085 129.26 31.7275 129.26C25.5795 129.26 21.5977 125.469 21.5977 120.308C21.5977 115.148 25.6432 111.421 31.0904 111.421C36.1871 111.421 40.3282 114.67 40.3282 120.372C40.3282 120.818 40.2645 121.392 40.2327 121.869ZM27.5863 118.684H34.6581C34.3396 116.868 33.0017 115.721 31.1222 115.721C29.2428 115.721 27.9367 116.868 27.5863 118.684Z" fill="white"/>
<path d="M60.6226 119.098V128.973H54.5702V120.085C54.5702 117.601 53.4872 116.55 51.7351 116.55C49.792 116.55 48.2948 117.76 48.2948 120.627V128.973H42.2424V111.708H48.0081V113.587C49.3779 112.154 51.321 111.421 53.4872 111.421C57.5327 111.421 60.6226 113.746 60.6226 119.098Z" fill="white"/>
<path d="M81.2009 121.869H68.6502C69.1598 123.621 70.657 124.641 72.8869 124.641C74.5752 124.641 75.6901 124.163 76.8687 123.144L80.0542 126.456C78.3977 128.304 75.9768 129.26 72.6957 129.26C66.5478 129.26 62.5659 125.469 62.5659 120.308C62.5659 115.148 66.6115 111.421 72.0586 111.421C77.1554 111.421 81.2965 114.67 81.2965 120.372C81.2965 120.818 81.2328 121.392 81.2009 121.869ZM68.5546 118.684H75.6264C75.3078 116.868 73.9699 115.721 72.0905 115.721C70.2111 115.721 68.905 116.868 68.5546 118.684Z" fill="white"/>
<path d="M93.0189 109.701C93.656 109.701 94.325 109.924 94.8346 110.211L96.3318 105.942C95.3443 105.337 93.7834 105.05 92.3181 105.05C87.7725 105.05 85.205 107.678 85.1253 111.708H82.2998V116.55H85.1158V128.973H91.1682V116.55H95.1182V111.708H91.0153C91.0949 110.354 91.8116 109.701 93.0157 109.701H93.0189Z" fill="white"/>
<path d="M97.9565 107.203C97.9565 105.56 99.2817 104.292 101.301 104.292C103.321 104.292 104.646 105.474 104.646 107.117C104.646 108.847 103.321 110.115 101.301 110.115C99.2817 110.115 97.9565 108.847 97.9565 107.203ZM98.2751 111.708H104.327V128.973H98.2751V111.708Z" fill="white"/>
<path d="M120 128.272C118.949 128.941 117.388 129.26 115.795 129.26C111.368 129.26 108.787 127.094 108.787 122.666V116.55H106.271V111.708H108.787V107.853H114.84V111.708H118.79V116.55H114.84V122.602C114.84 123.876 115.572 124.577 116.655 124.577C117.324 124.577 117.993 124.386 118.503 124.036L120 128.272Z" fill="white"/>
</svg>
