<svg width="256" height="28" viewBox="0 0 256 28" fill="none" xmlns="http://www.w3.org/2000/svg">
<path d="M15.999 19.7643V23.7704H0V20.6063L9.39015 9.91482H0V5.90869H15.999V9.07276L6.99158 19.7643H15.999Z" fill="#0088FF"/>
<path d="M32.2276 18.0801H22.174C22.5823 19.4835 23.7815 20.3 25.5677 20.3C26.9201 20.3 27.8132 19.9173 28.7573 19.1007L31.309 21.7545C29.9821 23.2344 28.0428 23.9999 25.4146 23.9999C20.4899 23.9999 17.3003 20.9635 17.3003 16.8297C17.3003 12.696 20.5409 9.71057 24.9043 9.71057C28.9869 9.71057 32.3041 12.3133 32.3041 16.8808C32.3041 17.238 32.2531 17.6973 32.2276 18.0801ZM22.0974 15.5284H27.7621C27.507 14.0739 26.4353 13.1553 24.9298 13.1553C23.4243 13.1553 22.3781 14.0739 22.0974 15.5284Z" fill="#0088FF"/>
<path d="M48.5608 15.8601V23.7703H43.7126V16.6511C43.7126 14.6608 42.845 13.8188 41.4416 13.8188C39.8851 13.8188 38.6858 14.7884 38.6858 17.0849V23.7703H33.8376V9.94023H38.4562V11.4457C39.5534 10.2975 41.1099 9.71057 42.845 9.71057C46.0857 9.71057 48.5608 11.5733 48.5608 15.8601Z" fill="#0088FF"/>
<path d="M65.0447 18.0801H54.9911C55.3994 19.4835 56.5987 20.3 58.3848 20.3C59.7372 20.3 60.6303 19.9173 61.5744 19.1007L64.1261 21.7545C62.7992 23.2344 60.86 23.9999 58.2317 23.9999C53.307 23.9999 50.1174 20.9635 50.1174 16.8297C50.1174 12.696 53.3581 9.71057 57.7214 9.71057C61.8041 9.71057 65.1213 12.3133 65.1213 16.8808C65.1213 17.238 65.0702 17.6973 65.0447 18.0801ZM54.9146 15.5284H60.5793C60.3241 14.0739 59.2524 13.1553 57.7469 13.1553C56.2414 13.1553 55.1953 14.0739 54.9146 15.5284Z" fill="#0088FF"/>
<path d="M74.5114 8.33274C75.0218 8.33274 75.5576 8.51136 75.9659 8.74101L77.1652 5.32177C76.3742 4.83695 75.1238 4.6073 73.9501 4.6073C70.3088 4.6073 68.2522 6.71244 68.1884 9.9403H65.925V13.8188H68.1807V23.7704H73.0289V13.8188H76.193V9.9403H72.9064C72.9702 8.85584 73.5443 8.33274 74.5089 8.33274H74.5114Z" fill="#0088FF"/>
<path d="M78.4666 6.33222C78.4666 5.01556 79.528 4 81.1458 4C82.7636 4 83.8251 4.94667 83.8251 6.26333C83.8251 7.64889 82.7636 8.66446 81.1458 8.66446C79.528 8.66446 78.4666 7.64889 78.4666 6.33222ZM78.7217 9.94029H83.5699V23.7704H78.7217V9.94029Z" fill="#0088FF"/>
<path d="M96.1239 23.209C95.2819 23.7449 94.0316 24 92.7557 24C89.2089 24 87.142 22.2649 87.142 18.7181V13.8188H85.1262V9.94031H87.142V6.85278H91.9902V9.94031H95.1543V13.8188H91.9902V18.667C91.9902 19.6877 92.5771 20.2491 93.4447 20.2491C93.9805 20.2491 94.5164 20.096 94.9246 19.8153L96.1239 23.209Z" fill="#0088FF"/>
</svg>
